<svg width="342" height="342" viewBox="0 0 342 342" fill="none" xmlns="http://www.w3.org/2000/svg">
<path d="M171 0.375C76.9184 0.375 0.375 76.9184 0.375 171C0.375 265.082 76.9184 341.625 171 341.625C265.082 341.625 341.625 265.082 341.625 171C341.625 76.9184 265.082 0.375 171 0.375ZM259.799 113.816L149.549 245.066C148.339 246.506 146.835 247.67 145.136 248.478C143.438 249.286 141.586 249.72 139.705 249.75H139.484C137.644 249.749 135.825 249.362 134.145 248.613C132.464 247.864 130.96 246.77 129.73 245.402L82.4801 192.902C81.2801 191.63 80.3466 190.13 79.7346 188.491C79.1225 186.853 78.8441 185.108 78.9159 183.36C78.9876 181.613 79.408 179.897 80.1523 178.314C80.8966 176.731 81.9499 175.313 83.2501 174.142C84.5504 172.972 86.0714 172.074 87.7238 171.5C89.3762 170.926 91.1267 170.688 92.8723 170.801C94.618 170.913 96.3235 171.373 97.8888 172.154C99.4541 172.935 100.847 174.021 101.987 175.348L139.139 216.626L239.701 96.934C241.957 94.326 245.148 92.7105 248.586 92.4366C252.023 92.1627 255.43 93.2525 258.07 95.4703C260.71 97.6881 262.372 100.856 262.695 104.289C263.019 107.722 261.978 111.144 259.799 113.816Z" fill="#30F544"/>
</svg>
