<svg width="342" height="342" viewBox="0 0 342 342" fill="none" xmlns="http://www.w3.org/2000/svg">
<path d="M171 0.375C76.9184 0.375 0.375 76.9184 0.375 171C0.375 265.082 76.9184 341.625 171 341.625C265.082 341.625 341.625 265.082 341.625 171C341.625 76.9184 265.082 0.375 171 0.375ZM232.778 214.222C234.048 215.429 235.063 216.878 235.765 218.483C236.466 220.088 236.839 221.818 236.862 223.57C236.884 225.321 236.555 227.06 235.895 228.683C235.235 230.305 234.257 231.78 233.018 233.018C231.78 234.257 230.305 235.235 228.683 235.895C227.06 236.555 225.321 236.884 223.57 236.862C221.818 236.839 220.088 236.466 218.483 235.765C216.878 235.063 215.429 234.048 214.222 232.778L171 189.564L127.778 232.778C125.296 235.135 121.992 236.43 118.57 236.386C115.147 236.343 111.877 234.963 109.457 232.543C107.037 230.123 105.658 226.853 105.614 223.43C105.57 220.008 106.865 216.704 109.222 214.222L152.436 171L109.222 127.778C106.865 125.296 105.57 121.992 105.614 118.57C105.658 115.147 107.037 111.877 109.457 109.457C111.877 107.037 115.147 105.658 118.57 105.614C121.992 105.57 125.296 106.865 127.778 109.222L171 152.436L214.222 109.222C216.704 106.865 220.008 105.57 223.43 105.614C226.853 105.658 230.123 107.037 232.543 109.457C234.963 111.877 236.343 115.147 236.386 118.57C236.43 121.992 235.135 125.296 232.778 127.778L189.564 171L232.778 214.222Z" fill="#F65050"/>
</svg>
